<svg xmlns="http://www.w3.org/2000/svg" viewBox="0 0 732 224.43"><defs><style>.cls-1{fill:#a0a0a0;}.cls-2{fill:#f19e29;}</style></defs><title>Ресурс 1</title><g id="Слой_2" data-name="Слой 2"><g id="svg2"><g id="g5088"><polygon id="polygon10" class="cls-1" points="257.87 221.21 294.93 3.77 354.19 3.77 317.11 221.21 257.87 221.21"/><path id="path12" class="cls-1" d="M532.06,9.13A153,153,0,0,0,478.94,0c-58.56,0-99.81,29.49-100.16,71.75-.33,31.24,29.45,48.67,51.93,59.07,23.07,10.65,30.82,17.46,30.71,27C461.28,172.36,443,179,426,179c-23.72,0-36.32-3.3-55.79-11.42l-7.63-3.46-8.32,48.68c13.84,6.07,39.44,11.33,66,11.6,62.3,0,102.74-29.15,103.2-74.28.23-24.74-15.56-43.56-49.75-59.08C453,81,440.29,74.3,440.42,64.12c0-9,10.74-18.7,33.94-18.7a109,109,0,0,1,44.35,8.33l5.32,2.5,8-47.12Z"/><path id="path14" class="cls-1" d="M684,4H638.24c-14.19,0-24.81,3.88-31,18l-88,199.25h62.23s10.17-26.79,12.48-32.67c6.8,0,67.25.1,75.89.1,1.78,7.61,7.22,32.58,7.22,32.58h55L684,4M611,144.13c4.9-12.53,23.61-60.78,23.61-60.78-.34.57,4.87-12.59,7.86-20.75l4,18.74,13.72,62.79Z"/><path id="path16" class="cls-1" d="M208.17,3.93l-58,148.27L144,122.08c-10.8-34.74-44.45-72.37-82.08-91.21L114.94,221l62.7-.08,93.3-217Z"/><path id="path18" class="cls-2" d="M96.32,3.8H.76L0,8.33c74.35,18,123.54,61.49,144,113.74L123.18,22.16C119.6,8.39,109.19,4.28,96.32,3.8Z"/></g></g></g></svg>