<svg xmlns="http://www.w3.org/2000/svg" viewBox="0 0 169.03 40.16"><defs><style>.cls-1{fill:#a1a1a1;}.cls-2,.cls-5{fill:#a0a0a0;}.cls-3{fill:#1cba00;}.cls-4,.cls-5{isolation:isolate;}.cls-5{font-size:27px;font-family:Arial-BoldMT, Arial;font-weight:700;}</style></defs><title>Ресурс 1</title><g id="Слой_2" data-name="Слой 2"><g id="Слой_1-2" data-name="Слой 1"><path class="cls-1" d="M11.78,29.94H.2V18.35H11.79Z"/><path class="cls-2" d="M39.78,30.42H34.6v-18H53.23v18H48.05V15.88H39.78ZM55.73,17V34.84H60.5V28.72a7,7,0,0,0,4.83,1.84c4.55,0,7.34-2.85,7.34-7,0-4.33-2.76-7.06-7.25-7.06a6.94,6.94,0,0,0-5.14,2.06h-.1l0-1.57Zm4.55,6.53c0-3.66,2.29-4.38,3.73-4.38s3.7.72,3.7,4.38c0,2.26-1,4.43-3.7,4.43s-3.73-2.17-3.73-4.43Zm24.21,5a7.23,7.23,0,0,1-5.33,2.06c-5.14,0-5.34-3.81-5.34-5.38V17h4.77v7.59c0,2.6.91,3.37,2.67,3.37,3,0,3.23-2.66,3.23-3.61V17h4.76v13.1H84.49Zm11.59-3.94H99c2.26,0,2.73.66,2.73,1.54,0,.57-.31,1.34-2.66,1.34h-3V24.56ZM91.32,17v13.1h9.47c3.45,0,5.83-.67,5.83-3.34,0-2.07-1.16-3-3.79-3.44v-.07c1.72-.23,3.23-1.3,3.23-3.07,0-3.17-3.77-3.17-5.24-3.17h-9.5Zm4.76,2.63h2.58c1.35,0,2.51.21,2.51,1.29s-1.82,1.22-2.6,1.22H96.08V19.6Zm16.56,1.6c0-1.93,2.07-2.08,2.92-2.08.53,0,2.51,0,2.57,1.73v.35c-.1,1.3-1.35,1-4.86,1.47-2.89.39-5.92,1.11-5.92,4.1,0,1.09.46,3.79,5.54,3.79a7.55,7.55,0,0,0,5.33-1.78h.1l.4,1.29h5v-.23c-.91-.18-1-1.06-.94-2.47l.1-6c0-1.52-.13-4.89-7.31-4.89-1.72,0-7.27.15-7.49,4.71Zm5.52,3.46a3.27,3.27,0,0,1-3.48,3.27c-.87,0-2.45-.28-2.45-1.52,0-1.47,1.79-1.75,2.8-1.88a10.06,10.06,0,0,0,3.13-.7Zm5.27-5.06V17h15.3V19.6h-5.27V30.07h-4.77V19.6Z"/><path class="cls-2" d="M0,30.12H11.94V18.34H0Z"/><path class="cls-3" d="M24.22,6.23V23.89H21.79C20.74,15.16,15.17,9.67,6.31,8.63V6.23ZM0,0V14.66H3.16c8.3,0,12.52,4.15,12.52,12.35v3.11H30.53V0Z"/><g class="cls-4"><text class="cls-5" transform="translate(139 30)">24</text></g></g></g></svg>