<svg xmlns="http://www.w3.org/2000/svg" viewBox="0 0 114.1 16.3"><defs><style>.cls-1{fill:#a1a1a1;}</style></defs><g id="Слой_2" data-name="Слой 2"><g id="Слой_1-2" data-name="Слой 1"><path class="cls-1" d="M17.4,16V7.6c0-2.4-1.3-3.5-3.4-3.5a5.1,5.1,0,0,0-4,2.1A3,3,0,0,0,6.8,4.1,4.89,4.89,0,0,0,3,5.9V4.4H0V16H3V8.2A3.1,3.1,0,0,1,5.4,6.8,1.6,1.6,0,0,1,7.1,8.6V16h3.1V8.2a3,3,0,0,1,2.4-1.3,1.6,1.6,0,0,1,1.7,1.8V16Zm8.3.3a5.88,5.88,0,0,1-6.1-6.1,5.88,5.88,0,0,1,6.1-6.1,5.88,5.88,0,0,1,6.1,6.1A5.77,5.77,0,0,1,25.7,16.3Zm0-2.7a3.11,3.11,0,0,0,3-3.4,3,3,0,1,0-6,0C22.8,12,23.8,13.6,25.7,13.6ZM45,16V7.8c0-2.3-1.2-3.7-3.8-3.7a5.46,5.46,0,0,0-4.1,1.8V4.4h-3V16h3V8.2a3.23,3.23,0,0,1,2.6-1.4c1.3,0,2.1.6,2.1,2.2v7Zm8.4.3a5.88,5.88,0,0,1-6.1-6.1,6.1,6.1,0,0,1,12.2,0A5.82,5.82,0,0,1,53.4,16.3Zm0-2.7a3.11,3.11,0,0,0,3-3.4,3,3,0,1,0-6,0C50.5,12,51.5,13.6,53.4,13.6Zm11.5-1.3a3.47,3.47,0,0,0,2.6,1.3c1.8,0,3-1.3,3-3.4s-1.2-3.4-3-3.4a3.47,3.47,0,0,0-2.6,1.3Zm0,3.7h-3V0h3V5.9a4.41,4.41,0,0,1,3.6-1.8c3,0,5.1,2.3,5.1,6.1s-2.2,6.1-5.1,6.1a4.41,4.41,0,0,1-3.6-1.8Zm21,0h-3V14.8a5,5,0,0,1-3.7,1.5,3.82,3.82,0,0,1-4-3.8c0-2.7,2.2-3.7,4-3.7a5,5,0,0,1,3.7,1.4V8.6c0-1.2-1-1.9-2.5-1.9A5.13,5.13,0,0,0,77,8.1l-1.2-2a7.75,7.75,0,0,1,5.1-1.8c2.6,0,5.1,1.1,5.1,4.4C85.9,8.5,85.9,16,85.9,16Zm-5.5-1.8a2.84,2.84,0,0,0,2.4-1V11.8a3,3,0,0,0-2.4-1c-1.2,0-2.2.6-2.2,1.8C78.2,13.6,79.2,14.2,80.4,14.2ZM99.8,16V7.8c0-2.3-1.2-3.7-3.8-3.7a5.46,5.46,0,0,0-4.1,1.8V4.4h-3V16h3V8.2a3.23,3.23,0,0,1,2.6-1.4c1.3,0,2.1.6,2.1,2.2v7Zm14.3,0-4.7-6.3L114,4.4h-3.7l-4.4,5.2V0h-3V16h3V13l1.4-1.5,3.1,4.5Z"/></g></g></svg>