<svg xmlns="http://www.w3.org/2000/svg" viewBox="0 0 91.85 16"><defs><style>.cls-1{fill:#a0a0a0;}.cls-2{fill:#ff5f00;}.cls-3{fill:#ec001b;}.cls-4{fill:#f89e1b;}</style></defs><title>Ресурс 1</title><g id="Слой_2" data-name="Слой 2"><g id="Слой_1-2" data-name="Слой 1"><path class="cls-1" d="M91.72,5.79a4,4,0,0,0-2.17-.56c-1.35,0-2.22.65-2.22,1.71,0,.87.65,1.4,1.84,1.57l.54.07c.64.09.94.26.94.56s-.42.65-1.21.65a2.84,2.84,0,0,1-1.77-.56l-.55.9a3.82,3.82,0,0,0,2.3.69c1.54,0,2.43-.72,2.43-1.73s-.7-1.43-1.86-1.6l-.54-.08c-.5-.06-.9-.16-.9-.52s.37-.62,1-.62a3.58,3.58,0,0,1,1.66.45l.5-.93Zm-5.55,0A4,4,0,0,0,84,5.23c-1.35,0-2.22.65-2.22,1.71,0,.87.65,1.4,1.84,1.57l.54.07c.64.09.94.26.94.56s-.43.65-1.22.65a2.84,2.84,0,0,1-1.77-.56l-.54.9a3.8,3.8,0,0,0,2.3.69c1.54,0,2.43-.72,2.43-1.73s-.7-1.43-1.86-1.6l-.54-.08c-.51-.06-.91-.16-.91-.52s.38-.62,1-.62a3.58,3.58,0,0,1,1.66.45l.5-.93ZM72.91,8a1.61,1.61,0,1,1-3.22,0,1.61,1.61,0,1,1,3.22,0ZM68.6,8v4.58h1.16V10a2,2,0,0,0,1.68.78A2.67,2.67,0,0,0,74.1,8a2.67,2.67,0,0,0-2.66-2.79A2,2,0,0,0,69.76,6V5.35H68.6Zm7.54,0a1.61,1.61,0,1,1,3.21,0,1.61,1.61,0,1,1-3.21,0Zm4.3,0V5.36H79.29V6a2,2,0,0,0-1.68-.78A2.67,2.67,0,0,0,75,8a2.66,2.66,0,0,0,2.66,2.79A2,2,0,0,0,79.29,10v.65h1.15V8ZM41.86,8a1.61,1.61,0,1,1,3.22,0,1.61,1.61,0,1,1-3.22,0Zm4.31,0V5.36H45V6a2,2,0,0,0-1.68-.78A2.67,2.67,0,0,0,40.67,8a2.67,2.67,0,0,0,2.66,2.79A2,2,0,0,0,45,10v.65h1.16V8ZM60.52,6.26a1.32,1.32,0,0,1,1.35,1.29H59.11A1.36,1.36,0,0,1,60.52,6.26Zm0-1A2.6,2.6,0,0,0,57.9,8a2.62,2.62,0,0,0,2.72,2.79,3.2,3.2,0,0,0,2.18-.75l-.56-.85a2.59,2.59,0,0,1-1.55.55,1.47,1.47,0,0,1-1.59-1.3h3.95l0-.44a2.55,2.55,0,0,0-2.53-2.8Zm-8.66.56a4,4,0,0,0-2.17-.56c-1.35,0-2.22.65-2.22,1.71,0,.86.65,1.4,1.84,1.57l.54.07c.64.09.94.26.94.56s-.42.65-1.22.65a2.84,2.84,0,0,1-1.77-.56l-.54.9a3.82,3.82,0,0,0,2.3.69c1.54,0,2.43-.72,2.43-1.74s-.7-1.42-1.86-1.59l-.54-.08c-.5-.06-.91-.16-.91-.52s.38-.62,1-.62a3.47,3.47,0,0,1,1.66.45l.5-.93Zm14.92-.56a1.58,1.58,0,0,0-1.4.78V5.36H64.26v5.32h1.16v-3c0-.88.38-1.37,1.14-1.37a1.92,1.92,0,0,1,.72.14l.35-1.09a2.46,2.46,0,0,0-.82-.15Zm-9.87.14H55.05V3.74H53.88V5.36H52.8v1h1.08V8.84c0,1.23.48,2,1.85,2a2.73,2.73,0,0,0,1.44-.41l-.33-1a2.18,2.18,0,0,1-1,.3c-.57,0-.76-.36-.76-.89V6.41h1.89v-1Zm-17.3,5.32V7.34a2,2,0,0,0-2.09-2.12,2.06,2.06,0,0,0-1.87,1,1.94,1.94,0,0,0-1.76-1A1.76,1.76,0,0,0,32.37,6V5.36H31.21v5.32h1.17V7.73a1.24,1.24,0,0,1,1.3-1.41c.77,0,1.16.5,1.16,1.4v3H36V7.73a1.25,1.25,0,0,1,1.3-1.41c.79,0,1.17.5,1.17,1.4v3h1.16Z"/><path class="cls-2" d="M9.44,14.29h7V1.71h-7Z"/><path class="cls-3" d="M9.89,8a8,8,0,0,1,3-6.29,8,8,0,1,0,0,12.58A8,8,0,0,1,9.89,8"/><path class="cls-4" d="M25.89,8a8,8,0,0,1-12.95,6.29,8,8,0,0,0,0-12.58A8,8,0,0,1,25.89,8"/></g></g></svg>