<svg xmlns="http://www.w3.org/2000/svg" viewBox="0 0 2667.9 560.57"><defs><style>.cls-1{fill:none;}.cls-2{fill:#a0a0a0;}.cls-3{fill:#76a62d;}</style></defs><title>Ресурс 1</title><g id="Слой_2" data-name="Слой 2"><g id="Слой_1-2" data-name="Слой 1"><polygon class="cls-1" points="1399 314.57 1559.6 314.57 1478.1 83.77 1399 314.57"/><polygon class="cls-1" points="1399 314.57 1559.6 314.57 1478.1 83.77 1399 314.57"/><path class="cls-2" d="M1527.1,43.07c-4.5-13.2-10.4-24.4-23.1-24.9h-31.8a26.42,26.42,0,0,0-2.9-.2h-10.2a26.42,26.42,0,0,0-2.9.2h0c-10.6,1.6-15.9,12.2-19.9,24.6l-157,438.7a10.5,10.5,0,0,0,10.5,10.5h32.8c13,0,19.7-10.7,23.6-23.6l31.3-91.4a15.63,15.63,0,0,1,14.8-10.5h174.6a15.64,15.64,0,0,1,14.7,10.4l32.6,92.4c4,12.9,11,23.6,24.6,23.6h34.3a10.74,10.74,0,0,0,11-10.5ZM1399,314.57l79.2-230.8,81.5,230.8Z"/><path class="cls-2" d="M1986.1,19.37c-4.2-1.6-28.5-1.4-28.5-1.4-16.3.4-26.7,0-34,10.1a31.65,31.65,0,0,0-2.7,4.7l-97.3,210.5L1723.4,32.87a31.65,31.65,0,0,0-2.7-4.7c-7.3-10.1-17.7-9.8-34-10.1,0,0-24.3-.2-28.5,1.4-10,3.8-3.4,16.1,1.3,26.2l122.9,245.2a80.41,80.41,0,0,1,8.5,36v148A18.1,18.1,0,0,0,1809,493h25.7a18.1,18.1,0,0,0,18.1-18.1V327.57a80.41,80.41,0,0,1,8.5-36l123.4-246C1989.5,35.47,1996.1,23.17,1986.1,19.37Z"/><path class="cls-3" d="M2455.9,248.37h0l-295-247.1a5.42,5.42,0,0,0-7.4.4l-43.6,45.4,240.9,201.3-240.9,201.3,43.6,45.4a5.42,5.42,0,0,0,7.4.4l295-247.1Z"/><path class="cls-3" d="M2667.9,250.37h0l-295-247.1a5.42,5.42,0,0,0-7.4.4l-43.6,45.4,240.9,201.3-240.9,201.3,43.6,45.4a5.42,5.42,0,0,0,7.4.4l295-247.1Z"/><path class="cls-2" d="M361.1,17.67H323.9a14,14,0,0,0-14,14v445.5A14.83,14.83,0,0,0,324.7,492h35.8a14.83,14.83,0,0,0,14.8-14.8V31.77A14.23,14.23,0,0,0,361.1,17.67Z"/><path class="cls-2" d="M228,435.47H61.9V31.77a14,14,0,0,0-14-14H14a14,14,0,0,0-14,14v440.7H0a16.56,16.56,0,0,0,16.6,16.6H228.1a14.34,14.34,0,0,0,14.4-14.4v-24.8A14.62,14.62,0,0,0,228,435.47Z"/><path class="cls-2" d="M1230.6,43.87c-20.7-14-49.3-23.9-104-23.9H1020.7a22.9,22.9,0,0,0-22.9,22.9v425.6a23.58,23.58,0,0,0,23.6,23.6h18.2a23.58,23.58,0,0,0,23.6-23.6V308.57h95.4c9.3,0,128.7-18.7,128.7-148.7C1287.2,103.27,1258.2,62.67,1230.6,43.87Zm-93.7,215.7h-73.8V69h52.6c36.1,0,55,6.5,68.7,15.8,18.3,12.4,37.4,39.2,37.4,76.6C1221.9,247.27,1143.1,259.57,1136.9,259.57Z"/><path class="cls-2" d="M937.3,502.57a37,37,0,0,0-8.6-4.5c-24.6-9.4-60.5-34.3-80.5-47.2-15.5-10-13.1-17.9-11-21.2l1.3-1.6.1-.1h0c34-41.7,53.7-101.1,53.7-176.1,0-132.6-56.7-240.1-210.6-240.1-141.6,0-209.6,107.5-209.6,240.1S517.8,498,681.7,498c33.3,0,63.9-6.4,90.8-18.8h.1c7.9-3.4,15.6-3.3,26.2,4.4,76,56.3,113.7,77,140.7,77,13,0,10.7-40,10.7-40S948.3,510.47,937.3,502.57Zm-398-249.7v-1c.2-90,33-185.5,142.6-185.5,124.2,0,143.2,95.5,143.3,185.5v1c0,107.1-34.7,188.5-143.3,188.5C557.2,441.37,539.3,343.17,539.3,252.87Z"/></g></g></svg>