<svg width="25" height="25" viewBox="0 0 25 25" fill="none" xmlns="http://www.w3.org/2000/svg">
<path d="M4.1665 17.1875L4.1665 7.81254C4.1665 7.16671 4.18734 6.59379 4.26025 6.08337C4.56234 3.34379 5.854 2.60421 9.37484 2.60421L15.6248 2.60421C19.1457 2.60421 20.4373 3.34379 20.7394 6.08337C20.8123 6.59379 20.8332 7.16671 20.8332 7.81254L20.8332 17.1875C20.8332 17.8334 20.8123 18.4063 20.7394 18.9167C20.4373 21.6563 19.1457 22.3959 15.6248 22.3959L9.37484 22.3959C5.854 22.3959 4.56234 21.6563 4.26025 18.9167C4.18734 18.4063 4.1665 17.8334 4.1665 17.1875Z" stroke="#A1A1A1" stroke-linecap="round" stroke-linejoin="round"/>
<path d="M8.3335 18.75L9.37516 17.7083" stroke="#A1A1A1" stroke-width="1.5" stroke-linecap="round" stroke-linejoin="round"/>
<path d="M12.4998 11.3598L12.4998 11.3504" stroke="#A1A1A1" stroke-width="2" stroke-linecap="round" stroke-linejoin="round"/>
<path d="M8.33333 18.7593L8.33333 18.7406" stroke="#A1A1A1" stroke-width="2" stroke-linecap="round" stroke-linejoin="round"/>
<path d="M12.4998 16.6667C15.3763 16.6667 17.7082 14.3348 17.7082 11.4583C17.7082 8.58185 15.3763 6.25 12.4998 6.25C9.62335 6.25 7.2915 8.58185 7.2915 11.4583C7.2915 14.3348 9.62335 16.6667 12.4998 16.6667Z" stroke="#A1A1A1" stroke-linecap="round" stroke-linejoin="round"/>
</svg>
