<svg width="25" height="25" viewBox="0 0 25 25" fill="none" xmlns="http://www.w3.org/2000/svg">
<path d="M17.7083 3.64587L7.29159 3.64587C4.16659 3.64587 2.08325 5.17712 2.08325 8.84379L2.08325 16.1355C2.08325 19.75 4.16658 21.3438 7.29159 21.3438L8.33325 21.3438L16.4895 21.3542L17.7083 21.3542L22.9166 16.1459L22.9166 8.85421C22.9166 5.17713 20.8333 3.64587 17.7083 3.64587Z" stroke="#A1A1A1" stroke-linecap="round" stroke-linejoin="round"/>
<path d="M4.16659 9.375L2.08325 9.375" stroke="#A1A1A1" stroke-linecap="round" stroke-linejoin="round"/>
<path d="M4.16659 12.5L2.08325 12.5" stroke="#A1A1A1" stroke-linecap="round" stroke-linejoin="round"/>
<path d="M4.16659 15.625L2.08325 15.625" stroke="#A1A1A1" stroke-linecap="round" stroke-linejoin="round"/>
<path d="M10.8484 11.0266C11.6617 11.84 11.6617 13.16 10.8484 13.9733C10.0351 14.7866 8.71508 14.7866 7.90175 13.9733C7.08842 13.16 7.08842 11.84 7.90175 11.0266C8.71508 10.2133 10.0351 10.2133 10.8484 11.0266Z" stroke="#A1A1A1" stroke-linecap="round" stroke-linejoin="round"/>
<path d="M18.1399 11.0266C18.9533 11.84 18.9533 13.16 18.1399 13.9733C17.3266 14.7866 16.0066 14.7866 15.1933 13.9733C14.3799 13.16 14.3799 11.84 15.1933 11.0266C16.0066 10.2133 17.3266 10.2133 18.1399 11.0266Z" stroke="#A1A1A1" stroke-linecap="round" stroke-linejoin="round"/>
</svg>
