<svg width="25" height="25" viewBox="0 0 25 25" fill="none" xmlns="http://www.w3.org/2000/svg">
<path d="M3.64575 7.29171V17.7084C3.64575 20.8334 5.177 22.9167 8.85409 22.9167H16.1458C19.7603 22.9167 21.3541 20.8334 21.3541 17.7084V16.4896C21.3541 15.9375 21.1353 15.4063 20.7395 15.0209L19.8749 14.1563C19.4791 13.7605 19.2603 13.2396 19.2603 12.6875V10.4167C19.2603 9.84379 19.7291 9.37504 20.302 9.37504C20.8749 9.37504 21.3437 8.90629 21.3437 8.33337V7.29171C21.3437 4.16671 19.7499 2.08337 16.1353 2.08337H8.84367C5.177 2.08337 3.64575 4.16671 3.64575 7.29171Z" stroke="#A1A1A1" stroke-linecap="round" stroke-linejoin="round"/>
<path d="M8.32292 22.8855L8.3125 19.7917C8.3125 18.6355 9.23958 17.7084 10.3958 17.7084H14.5729C15.7187 17.7084 16.6458 18.6355 16.6562 19.7813L16.6875 22.8959" stroke="#A1A1A1" stroke-linecap="round" stroke-linejoin="round"/>
<path d="M9.3125 5.15629L9.36458 2.14587" stroke="#A1A1A1" stroke-linecap="round" stroke-linejoin="round"/>
<path d="M12.4375 5.15629L12.4896 2.14587" stroke="#A1A1A1" stroke-linecap="round" stroke-linejoin="round"/>
<path d="M15.5625 5.125L15.6146 2.125" stroke="#A1A1A1" stroke-linecap="round" stroke-linejoin="round"/>
</svg>
