<svg width="25" height="25" viewBox="0 0 25 25" fill="none" xmlns="http://www.w3.org/2000/svg">
<path d="M9.99984 20.8333H14.9998C19.1665 20.8333 20.8332 19.1666 20.8332 15V9.99996C20.8332 5.83329 19.1665 4.16663 14.9998 4.16663H9.99984C5.83317 4.16663 4.1665 5.83329 4.1665 9.99996V15C4.1665 19.1666 5.83317 20.8333 9.99984 20.8333Z" stroke="#A1A1A1" stroke-linecap="round" stroke-linejoin="round"/>
<path d="M10.9373 17.7083H14.0623C16.6665 17.7083 17.7082 16.6666 17.7082 14.0625V10.9375C17.7082 8.33329 16.6665 7.29163 14.0623 7.29163H10.9373C8.33317 7.29163 7.2915 8.33329 7.2915 10.9375V14.0625C7.2915 16.6666 8.33317 17.7083 10.9373 17.7083Z" stroke="#A1A1A1" stroke-linecap="round" stroke-linejoin="round"/>
<path d="M8.34375 4.16671V2.08337" stroke="#A1A1A1" stroke-linecap="round" stroke-linejoin="round"/>
<path d="M12.5 4.16671V2.08337" stroke="#A1A1A1" stroke-linecap="round" stroke-linejoin="round"/>
<path d="M16.6665 4.16671V2.08337" stroke="#A1A1A1" stroke-linecap="round" stroke-linejoin="round"/>
<path d="M20.8335 8.33337H22.9168" stroke="#A1A1A1" stroke-linecap="round" stroke-linejoin="round"/>
<path d="M20.8335 12.5H22.9168" stroke="#A1A1A1" stroke-linecap="round" stroke-linejoin="round"/>
<path d="M20.8335 16.6666H22.9168" stroke="#A1A1A1" stroke-linecap="round" stroke-linejoin="round"/>
<path d="M16.6665 20.8334V22.9167" stroke="#A1A1A1" stroke-linecap="round" stroke-linejoin="round"/>
<path d="M12.5103 20.8334V22.9167" stroke="#A1A1A1" stroke-linecap="round" stroke-linejoin="round"/>
<path d="M8.34375 20.8334V22.9167" stroke="#A1A1A1" stroke-linecap="round" stroke-linejoin="round"/>
<path d="M2.0835 8.33337H4.16683" stroke="#A1A1A1" stroke-linecap="round" stroke-linejoin="round"/>
<path d="M2.0835 12.5H4.16683" stroke="#A1A1A1" stroke-linecap="round" stroke-linejoin="round"/>
<path d="M2.0835 16.6666H4.16683" stroke="#A1A1A1" stroke-linecap="round" stroke-linejoin="round"/>
</svg>
